<mxfile host="app.diagrams.net" agent="Mozilla/5.0 (Macintosh; Intel Mac OS X 10_15_7) AppleWebKit/537.36 (KHTML, like Gecko) Chrome/131.0.0.0 Safari/537.36" version="26.0.5">
  <diagram name="第 1 页" id="zzQ_-G9NxzNEcgAvAt1v">
    <mxGraphModel dx="2287" dy="921" grid="1" gridSize="10" guides="1" tooltips="1" connect="1" arrows="1" fold="1" page="1" pageScale="1" pageWidth="827" pageHeight="1169" math="0" shadow="0">
      <root>
        <mxCell id="0" />
        <mxCell id="1" parent="0" />
        <mxCell id="Hqzb3K3AwqjuaXWLKlO--46" value="" style="group" vertex="1" connectable="0" parent="1">
          <mxGeometry x="-10" y="150" width="720" height="535" as="geometry" />
        </mxCell>
        <mxCell id="Hqzb3K3AwqjuaXWLKlO--31" style="edgeStyle=orthogonalEdgeStyle;rounded=0;orthogonalLoop=1;jettySize=auto;html=1;exitX=0.5;exitY=1;exitDx=0;exitDy=0;entryX=0.5;entryY=0;entryDx=0;entryDy=0;" edge="1" parent="Hqzb3K3AwqjuaXWLKlO--46" source="Hqzb3K3AwqjuaXWLKlO--2" target="Hqzb3K3AwqjuaXWLKlO--17">
          <mxGeometry relative="1" as="geometry" />
        </mxCell>
        <mxCell id="Hqzb3K3AwqjuaXWLKlO--2" value="" style="rounded=1;whiteSpace=wrap;html=1;" vertex="1" parent="Hqzb3K3AwqjuaXWLKlO--46">
          <mxGeometry x="122.5" y="80" width="427.5" height="300" as="geometry" />
        </mxCell>
        <mxCell id="Hqzb3K3AwqjuaXWLKlO--7" style="edgeStyle=orthogonalEdgeStyle;rounded=0;orthogonalLoop=1;jettySize=auto;html=1;exitX=0.5;exitY=1;exitDx=0;exitDy=0;entryX=0.5;entryY=0;entryDx=0;entryDy=0;" edge="1" parent="Hqzb3K3AwqjuaXWLKlO--46" source="Hqzb3K3AwqjuaXWLKlO--4" target="Hqzb3K3AwqjuaXWLKlO--5">
          <mxGeometry relative="1" as="geometry" />
        </mxCell>
        <mxCell id="Hqzb3K3AwqjuaXWLKlO--4" value="客户端" style="rounded=0;whiteSpace=wrap;html=1;" vertex="1" parent="Hqzb3K3AwqjuaXWLKlO--46">
          <mxGeometry x="290" width="95" height="50" as="geometry" />
        </mxCell>
        <mxCell id="Hqzb3K3AwqjuaXWLKlO--12" style="edgeStyle=orthogonalEdgeStyle;rounded=1;orthogonalLoop=1;jettySize=auto;html=1;exitX=0.5;exitY=1;exitDx=0;exitDy=0;entryX=0.5;entryY=0;entryDx=0;entryDy=0;curved=0;strokeColor=default;dashed=1;" edge="1" parent="Hqzb3K3AwqjuaXWLKlO--46" source="Hqzb3K3AwqjuaXWLKlO--5" target="Hqzb3K3AwqjuaXWLKlO--9">
          <mxGeometry relative="1" as="geometry" />
        </mxCell>
        <mxCell id="Hqzb3K3AwqjuaXWLKlO--13" style="edgeStyle=orthogonalEdgeStyle;rounded=1;orthogonalLoop=1;jettySize=auto;html=1;exitX=0.5;exitY=1;exitDx=0;exitDy=0;curved=0;" edge="1" parent="Hqzb3K3AwqjuaXWLKlO--46" source="Hqzb3K3AwqjuaXWLKlO--5" target="Hqzb3K3AwqjuaXWLKlO--10">
          <mxGeometry relative="1" as="geometry" />
        </mxCell>
        <mxCell id="Hqzb3K3AwqjuaXWLKlO--40" style="rounded=0;orthogonalLoop=1;jettySize=auto;html=1;exitX=1;exitY=0.5;exitDx=0;exitDy=0;entryX=0;entryY=0.5;entryDx=0;entryDy=0;endArrow=oval;endFill=1;" edge="1" parent="Hqzb3K3AwqjuaXWLKlO--46" source="Hqzb3K3AwqjuaXWLKlO--5" target="Hqzb3K3AwqjuaXWLKlO--33">
          <mxGeometry relative="1" as="geometry" />
        </mxCell>
        <mxCell id="Hqzb3K3AwqjuaXWLKlO--5" value="连接器" style="rounded=0;whiteSpace=wrap;html=1;" vertex="1" parent="Hqzb3K3AwqjuaXWLKlO--46">
          <mxGeometry x="290" y="120" width="95" height="50" as="geometry" />
        </mxCell>
        <mxCell id="Hqzb3K3AwqjuaXWLKlO--9" value="查询缓存" style="rounded=0;whiteSpace=wrap;html=1;" vertex="1" parent="Hqzb3K3AwqjuaXWLKlO--46">
          <mxGeometry x="180" y="220" width="95" height="50" as="geometry" />
        </mxCell>
        <mxCell id="Hqzb3K3AwqjuaXWLKlO--14" style="edgeStyle=orthogonalEdgeStyle;rounded=0;orthogonalLoop=1;jettySize=auto;html=1;exitX=0;exitY=0.5;exitDx=0;exitDy=0;entryX=1;entryY=0.5;entryDx=0;entryDy=0;dashed=1;" edge="1" parent="Hqzb3K3AwqjuaXWLKlO--46" source="Hqzb3K3AwqjuaXWLKlO--10" target="Hqzb3K3AwqjuaXWLKlO--9">
          <mxGeometry relative="1" as="geometry" />
        </mxCell>
        <mxCell id="Hqzb3K3AwqjuaXWLKlO--22" style="edgeStyle=orthogonalEdgeStyle;rounded=0;orthogonalLoop=1;jettySize=auto;html=1;exitX=0.5;exitY=1;exitDx=0;exitDy=0;entryX=0.5;entryY=0;entryDx=0;entryDy=0;" edge="1" parent="Hqzb3K3AwqjuaXWLKlO--46" source="Hqzb3K3AwqjuaXWLKlO--10" target="Hqzb3K3AwqjuaXWLKlO--15">
          <mxGeometry relative="1" as="geometry" />
        </mxCell>
        <mxCell id="Hqzb3K3AwqjuaXWLKlO--41" style="edgeStyle=orthogonalEdgeStyle;rounded=0;orthogonalLoop=1;jettySize=auto;html=1;exitX=1;exitY=0.5;exitDx=0;exitDy=0;entryX=0;entryY=0.5;entryDx=0;entryDy=0;endArrow=oval;endFill=1;" edge="1" parent="Hqzb3K3AwqjuaXWLKlO--46" source="Hqzb3K3AwqjuaXWLKlO--10" target="Hqzb3K3AwqjuaXWLKlO--34">
          <mxGeometry relative="1" as="geometry" />
        </mxCell>
        <mxCell id="Hqzb3K3AwqjuaXWLKlO--10" value="分析器" style="rounded=0;whiteSpace=wrap;html=1;" vertex="1" parent="Hqzb3K3AwqjuaXWLKlO--46">
          <mxGeometry x="410" y="220" width="95" height="50" as="geometry" />
        </mxCell>
        <mxCell id="Hqzb3K3AwqjuaXWLKlO--32" style="edgeStyle=orthogonalEdgeStyle;rounded=0;orthogonalLoop=1;jettySize=auto;html=1;exitX=0;exitY=0.5;exitDx=0;exitDy=0;entryX=1;entryY=0.5;entryDx=0;entryDy=0;" edge="1" parent="Hqzb3K3AwqjuaXWLKlO--46" source="Hqzb3K3AwqjuaXWLKlO--15" target="Hqzb3K3AwqjuaXWLKlO--16">
          <mxGeometry relative="1" as="geometry" />
        </mxCell>
        <mxCell id="Hqzb3K3AwqjuaXWLKlO--43" style="edgeStyle=orthogonalEdgeStyle;rounded=0;orthogonalLoop=1;jettySize=auto;html=1;exitX=1;exitY=0.5;exitDx=0;exitDy=0;entryX=0;entryY=0.5;entryDx=0;entryDy=0;endArrow=oval;endFill=1;strokeColor=light-dark(#ef0606, #ededed);" edge="1" parent="Hqzb3K3AwqjuaXWLKlO--46" source="Hqzb3K3AwqjuaXWLKlO--15" target="Hqzb3K3AwqjuaXWLKlO--35">
          <mxGeometry relative="1" as="geometry" />
        </mxCell>
        <mxCell id="Hqzb3K3AwqjuaXWLKlO--15" value="优化器" style="rounded=0;whiteSpace=wrap;html=1;strokeColor=light-dark(#ed450c, #ededed);" vertex="1" parent="Hqzb3K3AwqjuaXWLKlO--46">
          <mxGeometry x="410" y="310" width="95" height="50" as="geometry" />
        </mxCell>
        <mxCell id="Hqzb3K3AwqjuaXWLKlO--45" style="edgeStyle=orthogonalEdgeStyle;rounded=0;orthogonalLoop=1;jettySize=auto;html=1;exitX=0;exitY=0.5;exitDx=0;exitDy=0;entryX=1;entryY=0.5;entryDx=0;entryDy=0;endArrow=oval;endFill=1;" edge="1" parent="Hqzb3K3AwqjuaXWLKlO--46" source="Hqzb3K3AwqjuaXWLKlO--16" target="Hqzb3K3AwqjuaXWLKlO--37">
          <mxGeometry relative="1" as="geometry" />
        </mxCell>
        <mxCell id="Hqzb3K3AwqjuaXWLKlO--16" value="执行器" style="rounded=0;whiteSpace=wrap;html=1;" vertex="1" parent="Hqzb3K3AwqjuaXWLKlO--46">
          <mxGeometry x="290" y="310" width="95" height="50" as="geometry" />
        </mxCell>
        <mxCell id="Hqzb3K3AwqjuaXWLKlO--20" style="edgeStyle=orthogonalEdgeStyle;rounded=0;orthogonalLoop=1;jettySize=auto;html=1;exitX=0.5;exitY=1;exitDx=0;exitDy=0;entryX=0.5;entryY=0;entryDx=0;entryDy=0;" edge="1" parent="Hqzb3K3AwqjuaXWLKlO--46" source="Hqzb3K3AwqjuaXWLKlO--18" target="Hqzb3K3AwqjuaXWLKlO--5">
          <mxGeometry relative="1" as="geometry">
            <Array as="points">
              <mxPoint x="188" y="70" />
              <mxPoint x="338" y="70" />
            </Array>
          </mxGeometry>
        </mxCell>
        <mxCell id="Hqzb3K3AwqjuaXWLKlO--18" value="客户端" style="rounded=0;whiteSpace=wrap;html=1;" vertex="1" parent="Hqzb3K3AwqjuaXWLKlO--46">
          <mxGeometry x="140" width="95" height="50" as="geometry" />
        </mxCell>
        <mxCell id="Hqzb3K3AwqjuaXWLKlO--21" style="edgeStyle=orthogonalEdgeStyle;rounded=0;orthogonalLoop=1;jettySize=auto;html=1;exitX=0.5;exitY=1;exitDx=0;exitDy=0;entryX=0.5;entryY=0;entryDx=0;entryDy=0;" edge="1" parent="Hqzb3K3AwqjuaXWLKlO--46" source="Hqzb3K3AwqjuaXWLKlO--19" target="Hqzb3K3AwqjuaXWLKlO--5">
          <mxGeometry relative="1" as="geometry">
            <Array as="points">
              <mxPoint x="488" y="70" />
              <mxPoint x="338" y="70" />
            </Array>
          </mxGeometry>
        </mxCell>
        <mxCell id="Hqzb3K3AwqjuaXWLKlO--19" value="客户端" style="rounded=0;whiteSpace=wrap;html=1;" vertex="1" parent="Hqzb3K3AwqjuaXWLKlO--46">
          <mxGeometry x="440" width="95" height="50" as="geometry" />
        </mxCell>
        <mxCell id="Hqzb3K3AwqjuaXWLKlO--24" value="Server 层" style="text;html=1;align=center;verticalAlign=middle;whiteSpace=wrap;rounded=0;" vertex="1" parent="Hqzb3K3AwqjuaXWLKlO--46">
          <mxGeometry x="130" y="100" width="60" height="30" as="geometry" />
        </mxCell>
        <mxCell id="Hqzb3K3AwqjuaXWLKlO--30" value="" style="group" vertex="1" connectable="0" parent="Hqzb3K3AwqjuaXWLKlO--46">
          <mxGeometry x="121.25" y="435" width="430" height="100" as="geometry" />
        </mxCell>
        <mxCell id="Hqzb3K3AwqjuaXWLKlO--17" value="" style="rounded=1;whiteSpace=wrap;html=1;" vertex="1" parent="Hqzb3K3AwqjuaXWLKlO--30">
          <mxGeometry width="430" height="100" as="geometry" />
        </mxCell>
        <mxCell id="Hqzb3K3AwqjuaXWLKlO--25" value="引擎层" style="text;html=1;align=center;verticalAlign=middle;whiteSpace=wrap;rounded=0;" vertex="1" parent="Hqzb3K3AwqjuaXWLKlO--30">
          <mxGeometry x="7.5" width="60" height="30" as="geometry" />
        </mxCell>
        <mxCell id="Hqzb3K3AwqjuaXWLKlO--27" value="存储引擎" style="rounded=0;whiteSpace=wrap;html=1;" vertex="1" parent="Hqzb3K3AwqjuaXWLKlO--30">
          <mxGeometry x="17.5" y="30" width="95" height="50" as="geometry" />
        </mxCell>
        <mxCell id="Hqzb3K3AwqjuaXWLKlO--28" value="存储引擎" style="rounded=0;whiteSpace=wrap;html=1;" vertex="1" parent="Hqzb3K3AwqjuaXWLKlO--30">
          <mxGeometry x="167.5" y="30" width="95" height="50" as="geometry" />
        </mxCell>
        <mxCell id="Hqzb3K3AwqjuaXWLKlO--29" value="存储引擎" style="rounded=0;whiteSpace=wrap;html=1;" vertex="1" parent="Hqzb3K3AwqjuaXWLKlO--30">
          <mxGeometry x="317.5" y="30" width="95" height="50" as="geometry" />
        </mxCell>
        <mxCell id="Hqzb3K3AwqjuaXWLKlO--33" value="连接管理" style="text;html=1;align=center;verticalAlign=middle;whiteSpace=wrap;rounded=0;" vertex="1" parent="Hqzb3K3AwqjuaXWLKlO--46">
          <mxGeometry x="590" y="130" width="60" height="30" as="geometry" />
        </mxCell>
        <mxCell id="Hqzb3K3AwqjuaXWLKlO--34" value="词法分析&lt;span style=&quot;color: rgba(0, 0, 0, 0); font-family: monospace; font-size: 0px; text-align: start; text-wrap-mode: nowrap;&quot;&gt;%3CmxGraphModel%3E%3Croot%3E%3CmxCell%20id%3D%220%22%2F%3E%3CmxCell%20id%3D%221%22%20parent%3D%220%22%2F%3E%3CmxCell%20id%3D%222%22%20value%3D%22%E8%BF%9E%E6%8E%A5%E7%AE%A1%E7%90%86%22%20style%3D%22text%3Bhtml%3D1%3Balign%3Dcenter%3BverticalAlign%3Dmiddle%3BwhiteSpace%3Dwrap%3Brounded%3D0%3B%22%20vertex%3D%221%22%20parent%3D%221%22%3E%3CmxGeometry%20x%3D%22580%22%20y%3D%22280%22%20width%3D%2260%22%20height%3D%2230%22%20as%3D%22geometry%22%2F%3E%3C%2FmxCell%3E%3C%2Froot%3E%3C%2FmxGraphModel%3E&lt;/span&gt;&lt;span style=&quot;color: rgba(0, 0, 0, 0); font-family: monospace; font-size: 0px; text-align: start; text-wrap-mode: nowrap;&quot;&gt;%3CmxGraphModel%3E%3Croot%3E%3CmxCell%20id%3D%220%22%2F%3E%3CmxCell%20id%3D%221%22%20parent%3D%220%22%2F%3E%3CmxCell%20id%3D%222%22%20value%3D%22%E8%BF%9E%E6%8E%A5%E7%AE%A1%E7%90%86%22%20style%3D%22text%3Bhtml%3D1%3Balign%3Dcenter%3BverticalAlign%3Dmiddle%3BwhiteSpace%3Dwrap%3Brounded%3D0%3B%22%20vertex%3D%221%22%20parent%3D%221%22%3E%3CmxGeometry%20x%3D%22580%22%20y%3D%22280%22%20width%3D%2260%22%20height%3D%2230%22%20as%3D%22geometry%22%2F%3E%3C%2FmxCell%3E%3C%2Froot%3E%3C%2FmxGraphModel%3E&lt;/span&gt;" style="text;html=1;align=center;verticalAlign=middle;whiteSpace=wrap;rounded=0;" vertex="1" parent="Hqzb3K3AwqjuaXWLKlO--46">
          <mxGeometry x="590" y="230" width="60" height="30" as="geometry" />
        </mxCell>
        <mxCell id="Hqzb3K3AwqjuaXWLKlO--35" value="生成执行计划,索引选择" style="text;html=1;align=center;verticalAlign=middle;whiteSpace=wrap;rounded=0;" vertex="1" parent="Hqzb3K3AwqjuaXWLKlO--46">
          <mxGeometry x="590" y="325" width="130" height="20" as="geometry" />
        </mxCell>
        <mxCell id="Hqzb3K3AwqjuaXWLKlO--37" value="操作引擎" style="text;html=1;align=center;verticalAlign=middle;whiteSpace=wrap;rounded=0;" vertex="1" parent="Hqzb3K3AwqjuaXWLKlO--46">
          <mxGeometry y="320" width="60" height="30" as="geometry" />
        </mxCell>
        <mxCell id="Hqzb3K3AwqjuaXWLKlO--38" value="数据存储" style="text;html=1;align=center;verticalAlign=middle;whiteSpace=wrap;rounded=0;" vertex="1" parent="Hqzb3K3AwqjuaXWLKlO--46">
          <mxGeometry x="590" y="470" width="60" height="30" as="geometry" />
        </mxCell>
        <mxCell id="Hqzb3K3AwqjuaXWLKlO--44" style="edgeStyle=orthogonalEdgeStyle;rounded=0;orthogonalLoop=1;jettySize=auto;html=1;exitX=1;exitY=0.5;exitDx=0;exitDy=0;endArrow=oval;endFill=1;" edge="1" parent="Hqzb3K3AwqjuaXWLKlO--46" source="Hqzb3K3AwqjuaXWLKlO--17" target="Hqzb3K3AwqjuaXWLKlO--38">
          <mxGeometry relative="1" as="geometry" />
        </mxCell>
        <mxCell id="Hqzb3K3AwqjuaXWLKlO--240" value="" style="group" vertex="1" connectable="0" parent="1">
          <mxGeometry x="-362.5" y="1920" width="1163.5" height="555" as="geometry" />
        </mxCell>
        <mxCell id="Hqzb3K3AwqjuaXWLKlO--238" value="" style="rounded=1;whiteSpace=wrap;html=1;fillColor=#f9f7ed;strokeColor=#36393d;" vertex="1" parent="Hqzb3K3AwqjuaXWLKlO--240">
          <mxGeometry y="435" width="470" height="120" as="geometry" />
        </mxCell>
        <mxCell id="Hqzb3K3AwqjuaXWLKlO--221" style="edgeStyle=orthogonalEdgeStyle;rounded=0;orthogonalLoop=1;jettySize=auto;html=1;exitX=0;exitY=0.5;exitDx=0;exitDy=0;entryX=1;entryY=0.5;entryDx=0;entryDy=0;entryPerimeter=0;" edge="1" parent="Hqzb3K3AwqjuaXWLKlO--240" source="Hqzb3K3AwqjuaXWLKlO--198" target="Hqzb3K3AwqjuaXWLKlO--114">
          <mxGeometry relative="1" as="geometry" />
        </mxCell>
        <mxCell id="Hqzb3K3AwqjuaXWLKlO--222" style="edgeStyle=orthogonalEdgeStyle;rounded=0;orthogonalLoop=1;jettySize=auto;html=1;exitX=1;exitY=0.5;exitDx=0;exitDy=0;exitPerimeter=0;entryX=0;entryY=0.5;entryDx=0;entryDy=0;" edge="1" parent="Hqzb3K3AwqjuaXWLKlO--240" source="Hqzb3K3AwqjuaXWLKlO--114" target="Hqzb3K3AwqjuaXWLKlO--198">
          <mxGeometry relative="1" as="geometry" />
        </mxCell>
        <mxCell id="Hqzb3K3AwqjuaXWLKlO--231" style="edgeStyle=orthogonalEdgeStyle;rounded=0;orthogonalLoop=1;jettySize=auto;html=1;exitX=0.55;exitY=0.95;exitDx=0;exitDy=0;exitPerimeter=0;entryX=1;entryY=0.5;entryDx=0;entryDy=0;" edge="1" parent="Hqzb3K3AwqjuaXWLKlO--240" source="Hqzb3K3AwqjuaXWLKlO--226" target="Hqzb3K3AwqjuaXWLKlO--230">
          <mxGeometry relative="1" as="geometry">
            <Array as="points">
              <mxPoint x="578.5" y="495" />
            </Array>
          </mxGeometry>
        </mxCell>
        <mxCell id="Hqzb3K3AwqjuaXWLKlO--226" value="星云告警" style="ellipse;shape=cloud;whiteSpace=wrap;html=1;fillColor=#f8cecc;strokeColor=#b85450;" vertex="1" parent="Hqzb3K3AwqjuaXWLKlO--240">
          <mxGeometry x="512.5" y="370" width="120" height="80" as="geometry" />
        </mxCell>
        <mxCell id="Hqzb3K3AwqjuaXWLKlO--199" style="rounded=0;orthogonalLoop=1;jettySize=auto;html=1;exitX=0.25;exitY=1;exitDx=0;exitDy=0;entryX=0.489;entryY=0.088;entryDx=0;entryDy=0;entryPerimeter=0;" edge="1" parent="Hqzb3K3AwqjuaXWLKlO--240" source="Hqzb3K3AwqjuaXWLKlO--198" target="Hqzb3K3AwqjuaXWLKlO--125">
          <mxGeometry relative="1" as="geometry" />
        </mxCell>
        <mxCell id="Hqzb3K3AwqjuaXWLKlO--198" value="" style="rounded=1;whiteSpace=wrap;html=1;dashed=1;dashPattern=8 8;container=0;fillColor=#d5e8d4;strokeColor=#82b366;" vertex="1" parent="Hqzb3K3AwqjuaXWLKlO--240">
          <mxGeometry x="552.5" width="611" height="230" as="geometry" />
        </mxCell>
        <mxCell id="Hqzb3K3AwqjuaXWLKlO--125" value="邮件发送" style="ellipse;shape=cloud;whiteSpace=wrap;html=1;container=0;" vertex="1" parent="Hqzb3K3AwqjuaXWLKlO--240">
          <mxGeometry x="798" y="370" width="120" height="80" as="geometry" />
        </mxCell>
        <mxCell id="Hqzb3K3AwqjuaXWLKlO--202" style="rounded=0;orthogonalLoop=1;jettySize=auto;html=1;exitX=0.75;exitY=1;exitDx=0;exitDy=0;entryX=0.489;entryY=0.098;entryDx=0;entryDy=0;entryPerimeter=0;" edge="1" parent="Hqzb3K3AwqjuaXWLKlO--240" source="Hqzb3K3AwqjuaXWLKlO--198" target="Hqzb3K3AwqjuaXWLKlO--125">
          <mxGeometry relative="1" as="geometry" />
        </mxCell>
        <mxCell id="Hqzb3K3AwqjuaXWLKlO--224" value="任务异步解耦" style="text;html=1;align=center;verticalAlign=middle;whiteSpace=wrap;rounded=0;container=0;" vertex="1" parent="Hqzb3K3AwqjuaXWLKlO--240">
          <mxGeometry x="563.5" width="89" height="30" as="geometry" />
        </mxCell>
        <mxCell id="Hqzb3K3AwqjuaXWLKlO--169" value="" style="rounded=0;whiteSpace=wrap;html=1;container=0;" vertex="1" parent="Hqzb3K3AwqjuaXWLKlO--240">
          <mxGeometry x="563.5" y="30" width="290" height="180" as="geometry" />
        </mxCell>
        <mxCell id="Hqzb3K3AwqjuaXWLKlO--179" value="pod" style="text;html=1;align=center;verticalAlign=middle;whiteSpace=wrap;rounded=0;container=0;" vertex="1" parent="Hqzb3K3AwqjuaXWLKlO--240">
          <mxGeometry x="563.5" y="30" width="60" height="30" as="geometry" />
        </mxCell>
        <mxCell id="Hqzb3K3AwqjuaXWLKlO--126" value="&lt;div style=&quot;background-color: rgb(255, 255, 255); color: rgb(8, 8, 8); font-family: Monaco, monospace;&quot;&gt;&lt;pre style=&quot;&quot;&gt;&lt;span style=&quot;color: rgb(0, 0, 0);&quot;&gt;&lt;font style=&quot;font-size: 10px;&quot;&gt;AbstractTaskService&lt;/font&gt;&lt;/span&gt;&lt;/pre&gt;&lt;/div&gt;" style="rounded=1;whiteSpace=wrap;html=1;container=0;" vertex="1" parent="Hqzb3K3AwqjuaXWLKlO--240">
          <mxGeometry x="643.5" y="40" width="130" height="50" as="geometry" />
        </mxCell>
        <mxCell id="Hqzb3K3AwqjuaXWLKlO--144" style="edgeStyle=orthogonalEdgeStyle;rounded=0;orthogonalLoop=1;jettySize=auto;html=1;exitX=0.5;exitY=1;exitDx=0;exitDy=0;entryX=0.154;entryY=-0.022;entryDx=0;entryDy=0;entryPerimeter=0;" edge="1" parent="Hqzb3K3AwqjuaXWLKlO--240" source="Hqzb3K3AwqjuaXWLKlO--126" target="Hqzb3K3AwqjuaXWLKlO--134">
          <mxGeometry relative="1" as="geometry" />
        </mxCell>
        <mxCell id="Hqzb3K3AwqjuaXWLKlO--145" style="edgeStyle=orthogonalEdgeStyle;rounded=0;orthogonalLoop=1;jettySize=auto;html=1;exitX=0.5;exitY=1;exitDx=0;exitDy=0;entryX=0.378;entryY=0.006;entryDx=0;entryDy=0;entryPerimeter=0;" edge="1" parent="Hqzb3K3AwqjuaXWLKlO--240" source="Hqzb3K3AwqjuaXWLKlO--126" target="Hqzb3K3AwqjuaXWLKlO--134">
          <mxGeometry relative="1" as="geometry" />
        </mxCell>
        <mxCell id="Hqzb3K3AwqjuaXWLKlO--146" style="edgeStyle=orthogonalEdgeStyle;rounded=0;orthogonalLoop=1;jettySize=auto;html=1;exitX=0.5;exitY=1;exitDx=0;exitDy=0;entryX=0.608;entryY=0.019;entryDx=0;entryDy=0;entryPerimeter=0;" edge="1" parent="Hqzb3K3AwqjuaXWLKlO--240" source="Hqzb3K3AwqjuaXWLKlO--126" target="Hqzb3K3AwqjuaXWLKlO--134">
          <mxGeometry relative="1" as="geometry" />
        </mxCell>
        <mxCell id="Hqzb3K3AwqjuaXWLKlO--147" style="edgeStyle=orthogonalEdgeStyle;rounded=0;orthogonalLoop=1;jettySize=auto;html=1;exitX=0.5;exitY=1;exitDx=0;exitDy=0;entryX=0.841;entryY=0.033;entryDx=0;entryDy=0;entryPerimeter=0;" edge="1" parent="Hqzb3K3AwqjuaXWLKlO--240" source="Hqzb3K3AwqjuaXWLKlO--126" target="Hqzb3K3AwqjuaXWLKlO--134">
          <mxGeometry relative="1" as="geometry" />
        </mxCell>
        <mxCell id="Hqzb3K3AwqjuaXWLKlO--134" value="" style="rounded=1;whiteSpace=wrap;html=1;container=0;" vertex="1" parent="Hqzb3K3AwqjuaXWLKlO--240">
          <mxGeometry x="583.5" y="140" width="250" height="60" as="geometry" />
        </mxCell>
        <mxCell id="Hqzb3K3AwqjuaXWLKlO--135" value="excutor" style="rounded=0;whiteSpace=wrap;html=1;container=0;" vertex="1" parent="Hqzb3K3AwqjuaXWLKlO--240">
          <mxGeometry x="593.5" y="150" width="51" height="40" as="geometry" />
        </mxCell>
        <mxCell id="Hqzb3K3AwqjuaXWLKlO--136" value="excutor" style="rounded=0;whiteSpace=wrap;html=1;container=0;" vertex="1" parent="Hqzb3K3AwqjuaXWLKlO--240">
          <mxGeometry x="652.5" y="150" width="51" height="40" as="geometry" />
        </mxCell>
        <mxCell id="Hqzb3K3AwqjuaXWLKlO--137" value="excutor" style="rounded=0;whiteSpace=wrap;html=1;container=0;" vertex="1" parent="Hqzb3K3AwqjuaXWLKlO--240">
          <mxGeometry x="713" y="150" width="51" height="40" as="geometry" />
        </mxCell>
        <mxCell id="Hqzb3K3AwqjuaXWLKlO--139" value="......" style="rounded=0;whiteSpace=wrap;html=1;container=0;" vertex="1" parent="Hqzb3K3AwqjuaXWLKlO--240">
          <mxGeometry x="772.5" y="150" width="51" height="40" as="geometry" />
        </mxCell>
        <mxCell id="Hqzb3K3AwqjuaXWLKlO--184" value="" style="rounded=0;whiteSpace=wrap;html=1;container=0;" vertex="1" parent="Hqzb3K3AwqjuaXWLKlO--240">
          <mxGeometry x="863.5" y="30" width="290" height="180" as="geometry" />
        </mxCell>
        <mxCell id="Hqzb3K3AwqjuaXWLKlO--197" value="pod" style="text;html=1;align=center;verticalAlign=middle;whiteSpace=wrap;rounded=0;container=0;" vertex="1" parent="Hqzb3K3AwqjuaXWLKlO--240">
          <mxGeometry x="863.5" y="30" width="60" height="30" as="geometry" />
        </mxCell>
        <mxCell id="Hqzb3K3AwqjuaXWLKlO--186" value="&lt;div style=&quot;background-color: rgb(255, 255, 255); color: rgb(8, 8, 8); font-family: Monaco, monospace;&quot;&gt;&lt;pre style=&quot;&quot;&gt;&lt;span style=&quot;color: rgb(0, 0, 0);&quot;&gt;&lt;font style=&quot;font-size: 10px;&quot;&gt;AbstractTaskService&lt;/font&gt;&lt;/span&gt;&lt;/pre&gt;&lt;/div&gt;" style="rounded=1;whiteSpace=wrap;html=1;container=0;" vertex="1" parent="Hqzb3K3AwqjuaXWLKlO--240">
          <mxGeometry x="943.5" y="40" width="130" height="50" as="geometry" />
        </mxCell>
        <mxCell id="Hqzb3K3AwqjuaXWLKlO--193" style="edgeStyle=orthogonalEdgeStyle;rounded=0;orthogonalLoop=1;jettySize=auto;html=1;exitX=0.5;exitY=1;exitDx=0;exitDy=0;entryX=0.154;entryY=-0.022;entryDx=0;entryDy=0;entryPerimeter=0;" edge="1" parent="Hqzb3K3AwqjuaXWLKlO--240" source="Hqzb3K3AwqjuaXWLKlO--186" target="Hqzb3K3AwqjuaXWLKlO--188">
          <mxGeometry relative="1" as="geometry" />
        </mxCell>
        <mxCell id="Hqzb3K3AwqjuaXWLKlO--194" style="edgeStyle=orthogonalEdgeStyle;rounded=0;orthogonalLoop=1;jettySize=auto;html=1;exitX=0.5;exitY=1;exitDx=0;exitDy=0;entryX=0.378;entryY=0.006;entryDx=0;entryDy=0;entryPerimeter=0;" edge="1" parent="Hqzb3K3AwqjuaXWLKlO--240" source="Hqzb3K3AwqjuaXWLKlO--186" target="Hqzb3K3AwqjuaXWLKlO--188">
          <mxGeometry relative="1" as="geometry" />
        </mxCell>
        <mxCell id="Hqzb3K3AwqjuaXWLKlO--195" style="edgeStyle=orthogonalEdgeStyle;rounded=0;orthogonalLoop=1;jettySize=auto;html=1;exitX=0.5;exitY=1;exitDx=0;exitDy=0;entryX=0.608;entryY=0.019;entryDx=0;entryDy=0;entryPerimeter=0;" edge="1" parent="Hqzb3K3AwqjuaXWLKlO--240" source="Hqzb3K3AwqjuaXWLKlO--186" target="Hqzb3K3AwqjuaXWLKlO--188">
          <mxGeometry relative="1" as="geometry" />
        </mxCell>
        <mxCell id="Hqzb3K3AwqjuaXWLKlO--196" style="edgeStyle=orthogonalEdgeStyle;rounded=0;orthogonalLoop=1;jettySize=auto;html=1;exitX=0.5;exitY=1;exitDx=0;exitDy=0;entryX=0.841;entryY=0.033;entryDx=0;entryDy=0;entryPerimeter=0;" edge="1" parent="Hqzb3K3AwqjuaXWLKlO--240" source="Hqzb3K3AwqjuaXWLKlO--186" target="Hqzb3K3AwqjuaXWLKlO--188">
          <mxGeometry relative="1" as="geometry" />
        </mxCell>
        <mxCell id="Hqzb3K3AwqjuaXWLKlO--188" value="" style="rounded=1;whiteSpace=wrap;html=1;container=0;" vertex="1" parent="Hqzb3K3AwqjuaXWLKlO--240">
          <mxGeometry x="883.5" y="140" width="250" height="60" as="geometry" />
        </mxCell>
        <mxCell id="Hqzb3K3AwqjuaXWLKlO--189" value="excutor" style="rounded=0;whiteSpace=wrap;html=1;container=0;" vertex="1" parent="Hqzb3K3AwqjuaXWLKlO--240">
          <mxGeometry x="893.5" y="150" width="51" height="40" as="geometry" />
        </mxCell>
        <mxCell id="Hqzb3K3AwqjuaXWLKlO--190" value="excutor" style="rounded=0;whiteSpace=wrap;html=1;container=0;" vertex="1" parent="Hqzb3K3AwqjuaXWLKlO--240">
          <mxGeometry x="952.5" y="150" width="51" height="40" as="geometry" />
        </mxCell>
        <mxCell id="Hqzb3K3AwqjuaXWLKlO--191" value="excutor" style="rounded=0;whiteSpace=wrap;html=1;container=0;" vertex="1" parent="Hqzb3K3AwqjuaXWLKlO--240">
          <mxGeometry x="1013" y="150" width="51" height="40" as="geometry" />
        </mxCell>
        <mxCell id="Hqzb3K3AwqjuaXWLKlO--192" value="......" style="rounded=0;whiteSpace=wrap;html=1;container=0;" vertex="1" parent="Hqzb3K3AwqjuaXWLKlO--240">
          <mxGeometry x="1072.5" y="150" width="51" height="40" as="geometry" />
        </mxCell>
        <mxCell id="Hqzb3K3AwqjuaXWLKlO--227" style="rounded=0;orthogonalLoop=1;jettySize=auto;html=1;exitX=0.5;exitY=1;exitDx=0;exitDy=0;entryX=0.583;entryY=0.125;entryDx=0;entryDy=0;entryPerimeter=0;strokeColor=light-dark(#f70103, #ededed);" edge="1" parent="Hqzb3K3AwqjuaXWLKlO--240" source="Hqzb3K3AwqjuaXWLKlO--198" target="Hqzb3K3AwqjuaXWLKlO--226">
          <mxGeometry relative="1" as="geometry" />
        </mxCell>
        <mxCell id="Hqzb3K3AwqjuaXWLKlO--228" value="failed" style="edgeLabel;html=1;align=center;verticalAlign=middle;resizable=0;points=[];" vertex="1" connectable="0" parent="Hqzb3K3AwqjuaXWLKlO--227">
          <mxGeometry x="0.0604" relative="1" as="geometry">
            <mxPoint as="offset" />
          </mxGeometry>
        </mxCell>
        <mxCell id="Hqzb3K3AwqjuaXWLKlO--114" value="task" style="shape=cylinder3;whiteSpace=wrap;html=1;boundedLbl=1;backgroundOutline=1;size=15;container=0;" vertex="1" parent="Hqzb3K3AwqjuaXWLKlO--240">
          <mxGeometry x="205" y="311" width="60" height="80" as="geometry" />
        </mxCell>
        <mxCell id="Hqzb3K3AwqjuaXWLKlO--216" style="edgeStyle=orthogonalEdgeStyle;rounded=0;orthogonalLoop=1;jettySize=auto;html=1;exitX=0.5;exitY=1;exitDx=0;exitDy=0;entryX=0.5;entryY=0;entryDx=0;entryDy=0;" edge="1" parent="Hqzb3K3AwqjuaXWLKlO--240" source="Hqzb3K3AwqjuaXWLKlO--120" target="Hqzb3K3AwqjuaXWLKlO--214">
          <mxGeometry relative="1" as="geometry" />
        </mxCell>
        <mxCell id="Hqzb3K3AwqjuaXWLKlO--120" value="配置服务" style="rounded=1;whiteSpace=wrap;html=1;container=0;" vertex="1" parent="Hqzb3K3AwqjuaXWLKlO--240">
          <mxGeometry x="170" width="130" height="50" as="geometry" />
        </mxCell>
        <mxCell id="Hqzb3K3AwqjuaXWLKlO--217" style="edgeStyle=orthogonalEdgeStyle;rounded=0;orthogonalLoop=1;jettySize=auto;html=1;exitX=0.5;exitY=1;exitDx=0;exitDy=0;entryX=0.5;entryY=0;entryDx=0;entryDy=0;entryPerimeter=0;" edge="1" parent="Hqzb3K3AwqjuaXWLKlO--240" source="Hqzb3K3AwqjuaXWLKlO--214" target="Hqzb3K3AwqjuaXWLKlO--114">
          <mxGeometry relative="1" as="geometry" />
        </mxCell>
        <mxCell id="Hqzb3K3AwqjuaXWLKlO--214" value="" style="rounded=1;whiteSpace=wrap;html=1;dashed=1;dashPattern=8 8;container=0;" vertex="1" parent="Hqzb3K3AwqjuaXWLKlO--240">
          <mxGeometry x="67.5" y="141" width="335" height="110" as="geometry" />
        </mxCell>
        <mxCell id="Hqzb3K3AwqjuaXWLKlO--206" value="" style="rounded=0;whiteSpace=wrap;html=1;container=0;" vertex="1" parent="Hqzb3K3AwqjuaXWLKlO--240">
          <mxGeometry x="82.5" y="161" width="150" height="70" as="geometry" />
        </mxCell>
        <mxCell id="Hqzb3K3AwqjuaXWLKlO--203" value="ScanRoutine" style="rounded=1;whiteSpace=wrap;html=1;container=0;" vertex="1" parent="Hqzb3K3AwqjuaXWLKlO--240">
          <mxGeometry x="92.5" y="171" width="130" height="50" as="geometry" />
        </mxCell>
        <mxCell id="Hqzb3K3AwqjuaXWLKlO--208" value="pod" style="text;html=1;align=center;verticalAlign=middle;whiteSpace=wrap;rounded=0;container=0;" vertex="1" parent="Hqzb3K3AwqjuaXWLKlO--240">
          <mxGeometry x="62.5" y="151" width="60" height="30" as="geometry" />
        </mxCell>
        <mxCell id="Hqzb3K3AwqjuaXWLKlO--211" value="" style="rounded=0;whiteSpace=wrap;html=1;container=0;" vertex="1" parent="Hqzb3K3AwqjuaXWLKlO--240">
          <mxGeometry x="242.5" y="161" width="150" height="70" as="geometry" />
        </mxCell>
        <mxCell id="Hqzb3K3AwqjuaXWLKlO--212" value="ScanRoutine" style="rounded=1;whiteSpace=wrap;html=1;container=0;" vertex="1" parent="Hqzb3K3AwqjuaXWLKlO--240">
          <mxGeometry x="252.5" y="171" width="130" height="50" as="geometry" />
        </mxCell>
        <mxCell id="Hqzb3K3AwqjuaXWLKlO--213" value="pod" style="text;html=1;align=center;verticalAlign=middle;whiteSpace=wrap;rounded=0;container=0;" vertex="1" parent="Hqzb3K3AwqjuaXWLKlO--240">
          <mxGeometry x="222.5" y="151" width="60" height="30" as="geometry" />
        </mxCell>
        <mxCell id="Hqzb3K3AwqjuaXWLKlO--230" value="云帆" style="rounded=1;whiteSpace=wrap;html=1;container=0;" vertex="1" parent="Hqzb3K3AwqjuaXWLKlO--240">
          <mxGeometry x="312.5" y="470" width="130" height="50" as="geometry" />
        </mxCell>
        <mxCell id="Hqzb3K3AwqjuaXWLKlO--232" style="edgeStyle=orthogonalEdgeStyle;rounded=0;orthogonalLoop=1;jettySize=auto;html=1;exitX=0;exitY=0.5;exitDx=0;exitDy=0;entryX=0.5;entryY=1;entryDx=0;entryDy=0;entryPerimeter=0;" edge="1" parent="Hqzb3K3AwqjuaXWLKlO--240" source="Hqzb3K3AwqjuaXWLKlO--230" target="Hqzb3K3AwqjuaXWLKlO--114">
          <mxGeometry relative="1" as="geometry" />
        </mxCell>
        <mxCell id="Hqzb3K3AwqjuaXWLKlO--233" value="手动重试" style="edgeLabel;html=1;align=center;verticalAlign=middle;resizable=0;points=[];" vertex="1" connectable="0" parent="Hqzb3K3AwqjuaXWLKlO--232">
          <mxGeometry x="-0.3995" relative="1" as="geometry">
            <mxPoint x="14" as="offset" />
          </mxGeometry>
        </mxCell>
        <mxCell id="Hqzb3K3AwqjuaXWLKlO--234" value="RetryRoutine" style="rounded=1;whiteSpace=wrap;html=1;container=0;" vertex="1" parent="Hqzb3K3AwqjuaXWLKlO--240">
          <mxGeometry x="27.5" y="470" width="130" height="50" as="geometry" />
        </mxCell>
        <mxCell id="Hqzb3K3AwqjuaXWLKlO--235" style="edgeStyle=orthogonalEdgeStyle;rounded=0;orthogonalLoop=1;jettySize=auto;html=1;exitX=1;exitY=0.5;exitDx=0;exitDy=0;entryX=0.5;entryY=1;entryDx=0;entryDy=0;entryPerimeter=0;" edge="1" parent="Hqzb3K3AwqjuaXWLKlO--240" source="Hqzb3K3AwqjuaXWLKlO--234" target="Hqzb3K3AwqjuaXWLKlO--114">
          <mxGeometry relative="1" as="geometry" />
        </mxCell>
        <mxCell id="Hqzb3K3AwqjuaXWLKlO--237" value="自动重试" style="edgeLabel;html=1;align=center;verticalAlign=middle;resizable=0;points=[];" vertex="1" connectable="0" parent="Hqzb3K3AwqjuaXWLKlO--235">
          <mxGeometry x="-0.3303" y="-1" relative="1" as="geometry">
            <mxPoint x="-26" y="-1" as="offset" />
          </mxGeometry>
        </mxCell>
        <mxCell id="Hqzb3K3AwqjuaXWLKlO--239" value="失败补偿" style="text;html=1;align=center;verticalAlign=middle;whiteSpace=wrap;rounded=0;" vertex="1" parent="Hqzb3K3AwqjuaXWLKlO--240">
          <mxGeometry x="7.5" y="435" width="60" height="30" as="geometry" />
        </mxCell>
        <mxCell id="Hqzb3K3AwqjuaXWLKlO--242" value="" style="group" vertex="1" connectable="0" parent="1">
          <mxGeometry x="1160" y="1290" width="557.5" height="510" as="geometry" />
        </mxCell>
        <mxCell id="Hqzb3K3AwqjuaXWLKlO--81" value="&lt;div style=&quot;background-color:#ffffff;color:#080808;font-family:&#39;Monaco&#39;,monospace;font-size:12.0pt;&quot;&gt;&lt;pre&gt;&lt;span style=&quot;color:#000000;&quot;&gt;ExplainNode&lt;/span&gt;&lt;/pre&gt;&lt;/div&gt;" style="swimlane;fontStyle=0;childLayout=stackLayout;horizontal=1;startSize=30;horizontalStack=0;resizeParent=1;resizeParentMax=0;resizeLast=0;collapsible=1;marginBottom=0;whiteSpace=wrap;html=1;" vertex="1" parent="Hqzb3K3AwqjuaXWLKlO--242">
          <mxGeometry width="160" height="60" as="geometry" />
        </mxCell>
        <mxCell id="Hqzb3K3AwqjuaXWLKlO--82" value="&lt;div style=&quot;background-color: rgb(255, 255, 255); color: rgb(8, 8, 8); font-family: Monaco, monospace;&quot;&gt;&lt;pre style=&quot;&quot;&gt;&lt;font style=&quot;font-size: 8px;&quot;&gt;&lt;span style=&quot;color: rgb(0, 98, 122);&quot;&gt;isSame&lt;/span&gt;(&lt;span style=&quot;color: rgb(0, 0, 0);&quot;&gt;ExplainJSON &lt;/span&gt;explainJSON)&lt;/font&gt;&lt;/pre&gt;&lt;/div&gt;" style="text;strokeColor=none;fillColor=none;align=left;verticalAlign=middle;spacingLeft=4;spacingRight=4;overflow=hidden;points=[[0,0.5],[1,0.5]];portConstraint=eastwest;rotatable=0;whiteSpace=wrap;html=1;" vertex="1" parent="Hqzb3K3AwqjuaXWLKlO--81">
          <mxGeometry y="30" width="160" height="30" as="geometry" />
        </mxCell>
        <mxCell id="Hqzb3K3AwqjuaXWLKlO--85" value="&lt;div style=&quot;background-color: rgb(255, 255, 255); color: rgb(8, 8, 8); font-family: Monaco, monospace; font-size: 12pt;&quot;&gt;&lt;pre&gt;&lt;div style=&quot;font-family: Monaco, monospace; font-size: 12pt;&quot;&gt;&lt;pre&gt;&lt;span style=&quot;color:#000000;&quot;&gt;QueryBlock&lt;/span&gt;&lt;/pre&gt;&lt;/div&gt;&lt;/pre&gt;&lt;/div&gt;" style="swimlane;fontStyle=0;childLayout=stackLayout;horizontal=1;startSize=30;horizontalStack=0;resizeParent=1;resizeParentMax=0;resizeLast=0;collapsible=1;marginBottom=0;whiteSpace=wrap;html=1;" vertex="1" parent="Hqzb3K3AwqjuaXWLKlO--242">
          <mxGeometry x="77.5" y="90" width="160" height="60" as="geometry" />
        </mxCell>
        <mxCell id="Hqzb3K3AwqjuaXWLKlO--86" value="&lt;div style=&quot;background-color: rgb(255, 255, 255); color: rgb(8, 8, 8); font-family: Monaco, monospace;&quot;&gt;&lt;pre style=&quot;&quot;&gt;&lt;font style=&quot;font-size: 8px;&quot;&gt;&lt;span style=&quot;color: rgb(0, 98, 122);&quot;&gt;isSame&lt;/span&gt;(&lt;span style=&quot;color: rgb(0, 0, 0);&quot;&gt;ExplainJSON &lt;/span&gt;explainJSON)&lt;/font&gt;&lt;/pre&gt;&lt;/div&gt;" style="text;strokeColor=none;fillColor=none;align=left;verticalAlign=middle;spacingLeft=4;spacingRight=4;overflow=hidden;points=[[0,0.5],[1,0.5]];portConstraint=eastwest;rotatable=0;whiteSpace=wrap;html=1;" vertex="1" parent="Hqzb3K3AwqjuaXWLKlO--85">
          <mxGeometry y="30" width="160" height="30" as="geometry" />
        </mxCell>
        <mxCell id="Hqzb3K3AwqjuaXWLKlO--88" value="&lt;div style=&quot;background-color: rgb(255, 255, 255); color: rgb(8, 8, 8); font-family: Monaco, monospace; font-size: 12pt;&quot;&gt;&lt;pre&gt;&lt;div style=&quot;font-family: Monaco, monospace; font-size: 12pt;&quot;&gt;&lt;pre&gt;&lt;div style=&quot;font-family: Monaco, monospace; font-size: 12pt;&quot;&gt;&lt;pre&gt;&lt;span style=&quot;color:#000000;&quot;&gt;NestedLoop&lt;/span&gt;&lt;/pre&gt;&lt;/div&gt;&lt;/pre&gt;&lt;/div&gt;&lt;/pre&gt;&lt;/div&gt;" style="swimlane;fontStyle=0;childLayout=stackLayout;horizontal=1;startSize=30;horizontalStack=0;resizeParent=1;resizeParentMax=0;resizeLast=0;collapsible=1;marginBottom=0;whiteSpace=wrap;html=1;" vertex="1" parent="Hqzb3K3AwqjuaXWLKlO--242">
          <mxGeometry x="160" y="180" width="160" height="60" as="geometry" />
        </mxCell>
        <mxCell id="Hqzb3K3AwqjuaXWLKlO--89" value="&lt;div style=&quot;background-color: rgb(255, 255, 255); color: rgb(8, 8, 8); font-family: Monaco, monospace;&quot;&gt;&lt;pre style=&quot;&quot;&gt;&lt;font style=&quot;font-size: 8px;&quot;&gt;&lt;span style=&quot;color: rgb(0, 98, 122);&quot;&gt;isSame&lt;/span&gt;(&lt;span style=&quot;color: rgb(0, 0, 0);&quot;&gt;ExplainJSON &lt;/span&gt;explainJSON)&lt;/font&gt;&lt;/pre&gt;&lt;/div&gt;" style="text;strokeColor=none;fillColor=none;align=left;verticalAlign=middle;spacingLeft=4;spacingRight=4;overflow=hidden;points=[[0,0.5],[1,0.5]];portConstraint=eastwest;rotatable=0;whiteSpace=wrap;html=1;" vertex="1" parent="Hqzb3K3AwqjuaXWLKlO--88">
          <mxGeometry y="30" width="160" height="30" as="geometry" />
        </mxCell>
        <mxCell id="Hqzb3K3AwqjuaXWLKlO--92" value="&lt;div style=&quot;background-color: rgb(255, 255, 255); color: rgb(8, 8, 8); font-family: Monaco, monospace; font-size: 12pt;&quot;&gt;&lt;pre&gt;&lt;div style=&quot;font-family: Monaco, monospace; font-size: 12pt;&quot;&gt;&lt;pre&gt;&lt;span style=&quot;color: rgb(0, 0, 0);&quot;&gt;........&lt;/span&gt;&lt;/pre&gt;&lt;/div&gt;&lt;/pre&gt;&lt;/div&gt;" style="swimlane;fontStyle=0;childLayout=stackLayout;horizontal=1;startSize=30;horizontalStack=0;resizeParent=1;resizeParentMax=0;resizeLast=0;collapsible=1;marginBottom=0;whiteSpace=wrap;html=1;" vertex="1" parent="Hqzb3K3AwqjuaXWLKlO--242">
          <mxGeometry x="397.5" y="450" width="160" height="60" as="geometry" />
        </mxCell>
        <mxCell id="Hqzb3K3AwqjuaXWLKlO--93" value="&lt;div style=&quot;background-color: rgb(255, 255, 255); color: rgb(8, 8, 8); font-family: Monaco, monospace;&quot;&gt;&lt;pre style=&quot;&quot;&gt;&lt;font style=&quot;font-size: 8px;&quot;&gt;&lt;span style=&quot;color: rgb(0, 98, 122);&quot;&gt;isSame&lt;/span&gt;(&lt;span style=&quot;color: rgb(0, 0, 0);&quot;&gt;ExplainJSON &lt;/span&gt;explainJSON)&lt;/font&gt;&lt;/pre&gt;&lt;/div&gt;" style="text;strokeColor=none;fillColor=none;align=left;verticalAlign=middle;spacingLeft=4;spacingRight=4;overflow=hidden;points=[[0,0.5],[1,0.5]];portConstraint=eastwest;rotatable=0;whiteSpace=wrap;html=1;" vertex="1" parent="Hqzb3K3AwqjuaXWLKlO--92">
          <mxGeometry y="30" width="160" height="30" as="geometry" />
        </mxCell>
        <mxCell id="Hqzb3K3AwqjuaXWLKlO--94" value="&lt;div style=&quot;background-color: rgb(255, 255, 255); color: rgb(8, 8, 8); font-family: Monaco, monospace; font-size: 12pt;&quot;&gt;&lt;pre&gt;&lt;div style=&quot;font-family: Monaco, monospace; font-size: 12pt;&quot;&gt;&lt;pre&gt;&lt;div style=&quot;font-family: Monaco, monospace; font-size: 12pt;&quot;&gt;&lt;pre&gt;&lt;span style=&quot;color:#000000;&quot;&gt;CostInfo&lt;/span&gt;&lt;/pre&gt;&lt;/div&gt;&lt;/pre&gt;&lt;/div&gt;&lt;/pre&gt;&lt;/div&gt;" style="swimlane;fontStyle=0;childLayout=stackLayout;horizontal=1;startSize=30;horizontalStack=0;resizeParent=1;resizeParentMax=0;resizeLast=0;collapsible=1;marginBottom=0;whiteSpace=wrap;html=1;" vertex="1" parent="Hqzb3K3AwqjuaXWLKlO--242">
          <mxGeometry x="320" y="360" width="160" height="60" as="geometry" />
        </mxCell>
        <mxCell id="Hqzb3K3AwqjuaXWLKlO--95" value="&lt;div style=&quot;background-color: rgb(255, 255, 255); color: rgb(8, 8, 8); font-family: Monaco, monospace;&quot;&gt;&lt;pre style=&quot;&quot;&gt;&lt;font style=&quot;font-size: 8px;&quot;&gt;&lt;span style=&quot;color: rgb(0, 98, 122);&quot;&gt;isSame&lt;/span&gt;(&lt;span style=&quot;color: rgb(0, 0, 0);&quot;&gt;ExplainJSON &lt;/span&gt;explainJSON)&lt;/font&gt;&lt;/pre&gt;&lt;/div&gt;" style="text;strokeColor=none;fillColor=none;align=left;verticalAlign=middle;spacingLeft=4;spacingRight=4;overflow=hidden;points=[[0,0.5],[1,0.5]];portConstraint=eastwest;rotatable=0;whiteSpace=wrap;html=1;" vertex="1" parent="Hqzb3K3AwqjuaXWLKlO--94">
          <mxGeometry y="30" width="160" height="30" as="geometry" />
        </mxCell>
        <mxCell id="Hqzb3K3AwqjuaXWLKlO--96" value="&lt;div style=&quot;background-color: rgb(255, 255, 255); color: rgb(8, 8, 8); font-family: Monaco, monospace; font-size: 12pt;&quot;&gt;&lt;pre&gt;&lt;div style=&quot;font-family: Monaco, monospace; font-size: 12pt;&quot;&gt;&lt;pre&gt;&lt;div style=&quot;font-family: Monaco, monospace; font-size: 12pt;&quot;&gt;&lt;pre&gt;&lt;span style=&quot;color:#000000;&quot;&gt;Table&lt;/span&gt;&lt;/pre&gt;&lt;/div&gt;&lt;/pre&gt;&lt;/div&gt;&lt;/pre&gt;&lt;/div&gt;" style="swimlane;fontStyle=0;childLayout=stackLayout;horizontal=1;startSize=30;horizontalStack=0;resizeParent=1;resizeParentMax=0;resizeLast=0;collapsible=1;marginBottom=0;whiteSpace=wrap;html=1;" vertex="1" parent="Hqzb3K3AwqjuaXWLKlO--242">
          <mxGeometry x="237.5" y="270" width="160" height="60" as="geometry" />
        </mxCell>
        <mxCell id="Hqzb3K3AwqjuaXWLKlO--97" value="&lt;div style=&quot;background-color: rgb(255, 255, 255); color: rgb(8, 8, 8); font-family: Monaco, monospace;&quot;&gt;&lt;pre style=&quot;&quot;&gt;&lt;font style=&quot;font-size: 8px;&quot;&gt;&lt;span style=&quot;color: rgb(0, 98, 122);&quot;&gt;isSame&lt;/span&gt;(&lt;span style=&quot;color: rgb(0, 0, 0);&quot;&gt;ExplainJSON &lt;/span&gt;explainJSON)&lt;/font&gt;&lt;/pre&gt;&lt;/div&gt;" style="text;strokeColor=none;fillColor=none;align=left;verticalAlign=middle;spacingLeft=4;spacingRight=4;overflow=hidden;points=[[0,0.5],[1,0.5]];portConstraint=eastwest;rotatable=0;whiteSpace=wrap;html=1;" vertex="1" parent="Hqzb3K3AwqjuaXWLKlO--96">
          <mxGeometry y="30" width="160" height="30" as="geometry" />
        </mxCell>
        <mxCell id="Hqzb3K3AwqjuaXWLKlO--100" style="edgeStyle=orthogonalEdgeStyle;rounded=0;orthogonalLoop=1;jettySize=auto;html=1;exitX=1;exitY=0.5;exitDx=0;exitDy=0;entryX=0.75;entryY=0;entryDx=0;entryDy=0;" edge="1" parent="Hqzb3K3AwqjuaXWLKlO--242" source="Hqzb3K3AwqjuaXWLKlO--82" target="Hqzb3K3AwqjuaXWLKlO--85">
          <mxGeometry relative="1" as="geometry" />
        </mxCell>
        <mxCell id="Hqzb3K3AwqjuaXWLKlO--101" style="edgeStyle=orthogonalEdgeStyle;rounded=0;orthogonalLoop=1;jettySize=auto;html=1;exitX=1;exitY=0.5;exitDx=0;exitDy=0;entryX=0.75;entryY=0;entryDx=0;entryDy=0;" edge="1" parent="Hqzb3K3AwqjuaXWLKlO--242" source="Hqzb3K3AwqjuaXWLKlO--86" target="Hqzb3K3AwqjuaXWLKlO--88">
          <mxGeometry relative="1" as="geometry" />
        </mxCell>
        <mxCell id="Hqzb3K3AwqjuaXWLKlO--102" style="edgeStyle=orthogonalEdgeStyle;rounded=0;orthogonalLoop=1;jettySize=auto;html=1;exitX=1;exitY=0.5;exitDx=0;exitDy=0;entryX=0.75;entryY=0;entryDx=0;entryDy=0;" edge="1" parent="Hqzb3K3AwqjuaXWLKlO--242" source="Hqzb3K3AwqjuaXWLKlO--89" target="Hqzb3K3AwqjuaXWLKlO--96">
          <mxGeometry relative="1" as="geometry" />
        </mxCell>
        <mxCell id="Hqzb3K3AwqjuaXWLKlO--103" style="edgeStyle=orthogonalEdgeStyle;rounded=0;orthogonalLoop=1;jettySize=auto;html=1;exitX=1;exitY=0.5;exitDx=0;exitDy=0;entryX=0.75;entryY=0;entryDx=0;entryDy=0;" edge="1" parent="Hqzb3K3AwqjuaXWLKlO--242" source="Hqzb3K3AwqjuaXWLKlO--97" target="Hqzb3K3AwqjuaXWLKlO--94">
          <mxGeometry relative="1" as="geometry" />
        </mxCell>
        <mxCell id="Hqzb3K3AwqjuaXWLKlO--104" style="edgeStyle=orthogonalEdgeStyle;rounded=0;orthogonalLoop=1;jettySize=auto;html=1;exitX=1;exitY=0.5;exitDx=0;exitDy=0;entryX=0.75;entryY=0;entryDx=0;entryDy=0;" edge="1" parent="Hqzb3K3AwqjuaXWLKlO--242" source="Hqzb3K3AwqjuaXWLKlO--95" target="Hqzb3K3AwqjuaXWLKlO--92">
          <mxGeometry relative="1" as="geometry" />
        </mxCell>
        <mxCell id="Hqzb3K3AwqjuaXWLKlO--105" style="edgeStyle=orthogonalEdgeStyle;rounded=0;orthogonalLoop=1;jettySize=auto;html=1;exitX=0;exitY=0.5;exitDx=0;exitDy=0;entryX=0.173;entryY=0.983;entryDx=0;entryDy=0;entryPerimeter=0;" edge="1" parent="Hqzb3K3AwqjuaXWLKlO--242" source="Hqzb3K3AwqjuaXWLKlO--93" target="Hqzb3K3AwqjuaXWLKlO--95">
          <mxGeometry relative="1" as="geometry" />
        </mxCell>
        <mxCell id="Hqzb3K3AwqjuaXWLKlO--108" style="edgeStyle=orthogonalEdgeStyle;rounded=0;orthogonalLoop=1;jettySize=auto;html=1;exitX=0;exitY=0.5;exitDx=0;exitDy=0;entryX=0.163;entryY=0.983;entryDx=0;entryDy=0;entryPerimeter=0;" edge="1" parent="Hqzb3K3AwqjuaXWLKlO--242" source="Hqzb3K3AwqjuaXWLKlO--95" target="Hqzb3K3AwqjuaXWLKlO--97">
          <mxGeometry relative="1" as="geometry" />
        </mxCell>
        <mxCell id="Hqzb3K3AwqjuaXWLKlO--109" style="edgeStyle=orthogonalEdgeStyle;rounded=0;orthogonalLoop=1;jettySize=auto;html=1;exitX=0;exitY=0.5;exitDx=0;exitDy=0;entryX=0.158;entryY=0.983;entryDx=0;entryDy=0;entryPerimeter=0;" edge="1" parent="Hqzb3K3AwqjuaXWLKlO--242" source="Hqzb3K3AwqjuaXWLKlO--97" target="Hqzb3K3AwqjuaXWLKlO--89">
          <mxGeometry relative="1" as="geometry" />
        </mxCell>
        <mxCell id="Hqzb3K3AwqjuaXWLKlO--110" style="edgeStyle=orthogonalEdgeStyle;rounded=0;orthogonalLoop=1;jettySize=auto;html=1;exitX=0;exitY=0.5;exitDx=0;exitDy=0;entryX=0.147;entryY=0.983;entryDx=0;entryDy=0;entryPerimeter=0;" edge="1" parent="Hqzb3K3AwqjuaXWLKlO--242" source="Hqzb3K3AwqjuaXWLKlO--89" target="Hqzb3K3AwqjuaXWLKlO--86">
          <mxGeometry relative="1" as="geometry" />
        </mxCell>
        <mxCell id="Hqzb3K3AwqjuaXWLKlO--111" style="edgeStyle=orthogonalEdgeStyle;rounded=0;orthogonalLoop=1;jettySize=auto;html=1;exitX=0;exitY=0.5;exitDx=0;exitDy=0;entryX=0.147;entryY=0.983;entryDx=0;entryDy=0;entryPerimeter=0;" edge="1" parent="Hqzb3K3AwqjuaXWLKlO--242" source="Hqzb3K3AwqjuaXWLKlO--86" target="Hqzb3K3AwqjuaXWLKlO--82">
          <mxGeometry relative="1" as="geometry" />
        </mxCell>
        <mxCell id="Hqzb3K3AwqjuaXWLKlO--278" value="" style="group" vertex="1" connectable="0" parent="1">
          <mxGeometry x="-290" y="980" width="1002.5" height="575" as="geometry" />
        </mxCell>
        <mxCell id="Hqzb3K3AwqjuaXWLKlO--287" value="" style="rounded=1;whiteSpace=wrap;html=1;dashed=1;dashPattern=1 1;fillColor=#eeeeee;strokeColor=#36393d;" vertex="1" parent="Hqzb3K3AwqjuaXWLKlO--278">
          <mxGeometry x="370" y="355" width="620" height="185" as="geometry" />
        </mxCell>
        <mxCell id="Hqzb3K3AwqjuaXWLKlO--279" value="" style="rounded=1;whiteSpace=wrap;html=1;dashed=1;dashPattern=1 2;fillColor=#eeeeee;strokeColor=#36393d;" vertex="1" parent="Hqzb3K3AwqjuaXWLKlO--278">
          <mxGeometry x="372.5" y="-20" width="620" height="220" as="geometry" />
        </mxCell>
        <mxCell id="Hqzb3K3AwqjuaXWLKlO--68" style="edgeStyle=orthogonalEdgeStyle;rounded=0;orthogonalLoop=1;jettySize=auto;html=1;exitX=1;exitY=0.5;exitDx=0;exitDy=0;entryX=0;entryY=0.5;entryDx=0;entryDy=0;" edge="1" parent="Hqzb3K3AwqjuaXWLKlO--278" source="Hqzb3K3AwqjuaXWLKlO--57" target="Hqzb3K3AwqjuaXWLKlO--66">
          <mxGeometry relative="1" as="geometry" />
        </mxCell>
        <mxCell id="Hqzb3K3AwqjuaXWLKlO--57" value="kafka" style="rounded=1;whiteSpace=wrap;html=1;" vertex="1" parent="Hqzb3K3AwqjuaXWLKlO--278">
          <mxGeometry x="227.5" y="260" width="105" height="30" as="geometry" />
        </mxCell>
        <mxCell id="Hqzb3K3AwqjuaXWLKlO--77" style="edgeStyle=orthogonalEdgeStyle;rounded=0;orthogonalLoop=1;jettySize=auto;html=1;exitX=1;exitY=0.5;exitDx=0;exitDy=0;entryX=0;entryY=0.5;entryDx=0;entryDy=0;" edge="1" parent="Hqzb3K3AwqjuaXWLKlO--278" source="Hqzb3K3AwqjuaXWLKlO--61" target="Hqzb3K3AwqjuaXWLKlO--76">
          <mxGeometry relative="1" as="geometry" />
        </mxCell>
        <mxCell id="Hqzb3K3AwqjuaXWLKlO--61" value="diag组件" style="rounded=1;whiteSpace=wrap;html=1;" vertex="1" parent="Hqzb3K3AwqjuaXWLKlO--278">
          <mxGeometry x="630" y="80" width="105" height="30" as="geometry" />
        </mxCell>
        <mxCell id="Hqzb3K3AwqjuaXWLKlO--71" style="edgeStyle=orthogonalEdgeStyle;rounded=0;orthogonalLoop=1;jettySize=auto;html=1;exitX=1;exitY=0.5;exitDx=0;exitDy=0;entryX=0;entryY=0.5;entryDx=0;entryDy=0;" edge="1" parent="Hqzb3K3AwqjuaXWLKlO--278" source="Hqzb3K3AwqjuaXWLKlO--64" target="Hqzb3K3AwqjuaXWLKlO--61">
          <mxGeometry relative="1" as="geometry" />
        </mxCell>
        <mxCell id="Hqzb3K3AwqjuaXWLKlO--64" value="kafka" style="rounded=1;whiteSpace=wrap;html=1;" vertex="1" parent="Hqzb3K3AwqjuaXWLKlO--278">
          <mxGeometry x="417" y="80" width="105" height="30" as="geometry" />
        </mxCell>
        <mxCell id="Hqzb3K3AwqjuaXWLKlO--243" value="" style="group" vertex="1" connectable="0" parent="Hqzb3K3AwqjuaXWLKlO--278">
          <mxGeometry x="820" width="140" height="190" as="geometry" />
        </mxCell>
        <mxCell id="Hqzb3K3AwqjuaXWLKlO--76" value="" style="rounded=0;whiteSpace=wrap;html=1;dashed=1;dashPattern=8 8;" vertex="1" parent="Hqzb3K3AwqjuaXWLKlO--243">
          <mxGeometry width="140" height="190" as="geometry" />
        </mxCell>
        <mxCell id="Hqzb3K3AwqjuaXWLKlO--62" value="指标告警" style="rounded=1;whiteSpace=wrap;html=1;" vertex="1" parent="Hqzb3K3AwqjuaXWLKlO--243">
          <mxGeometry x="17.5" y="30" width="105" height="30" as="geometry" />
        </mxCell>
        <mxCell id="Hqzb3K3AwqjuaXWLKlO--63" value="长事务告警" style="rounded=1;whiteSpace=wrap;html=1;" vertex="1" parent="Hqzb3K3AwqjuaXWLKlO--243">
          <mxGeometry x="17.5" y="70" width="105" height="30" as="geometry" />
        </mxCell>
        <mxCell id="Hqzb3K3AwqjuaXWLKlO--72" value="慢日志告警" style="rounded=1;whiteSpace=wrap;html=1;" vertex="1" parent="Hqzb3K3AwqjuaXWLKlO--243">
          <mxGeometry x="17.5" y="110" width="105" height="30" as="geometry" />
        </mxCell>
        <mxCell id="Hqzb3K3AwqjuaXWLKlO--75" value="............" style="rounded=1;whiteSpace=wrap;html=1;" vertex="1" parent="Hqzb3K3AwqjuaXWLKlO--243">
          <mxGeometry x="17.5" y="150" width="105" height="30" as="geometry" />
        </mxCell>
        <mxCell id="Hqzb3K3AwqjuaXWLKlO--78" value="输出诊断项" style="text;html=1;align=center;verticalAlign=middle;whiteSpace=wrap;rounded=0;" vertex="1" parent="Hqzb3K3AwqjuaXWLKlO--243">
          <mxGeometry width="80" height="30" as="geometry" />
        </mxCell>
        <mxCell id="Hqzb3K3AwqjuaXWLKlO--247" value="" style="group" vertex="1" connectable="0" parent="Hqzb3K3AwqjuaXWLKlO--278">
          <mxGeometry x="400" y="210" width="139" height="130" as="geometry" />
        </mxCell>
        <mxCell id="Hqzb3K3AwqjuaXWLKlO--66" value="" style="rounded=0;whiteSpace=wrap;html=1;container=0;dashed=1;dashPattern=8 8;" vertex="1" parent="Hqzb3K3AwqjuaXWLKlO--247">
          <mxGeometry width="139" height="130" as="geometry" />
        </mxCell>
        <mxCell id="Hqzb3K3AwqjuaXWLKlO--58" value="指标分析,cpu,io,扫描行数" style="rounded=1;whiteSpace=wrap;html=1;container=0;" vertex="1" parent="Hqzb3K3AwqjuaXWLKlO--247">
          <mxGeometry x="17.5" y="30" width="105" height="30" as="geometry" />
        </mxCell>
        <mxCell id="Hqzb3K3AwqjuaXWLKlO--60" value="慢日志分析,执行时间" style="rounded=1;whiteSpace=wrap;html=1;container=0;" vertex="1" parent="Hqzb3K3AwqjuaXWLKlO--247">
          <mxGeometry x="17.5" y="90" width="105" height="30" as="geometry" />
        </mxCell>
        <mxCell id="Hqzb3K3AwqjuaXWLKlO--67" value="流式计算" style="text;html=1;align=center;verticalAlign=middle;whiteSpace=wrap;rounded=0;container=0;" vertex="1" parent="Hqzb3K3AwqjuaXWLKlO--247">
          <mxGeometry width="57.5" height="20" as="geometry" />
        </mxCell>
        <mxCell id="Hqzb3K3AwqjuaXWLKlO--263" style="edgeStyle=orthogonalEdgeStyle;rounded=0;orthogonalLoop=1;jettySize=auto;html=1;exitX=1;exitY=0.5;exitDx=0;exitDy=0;" edge="1" parent="Hqzb3K3AwqjuaXWLKlO--278" source="Hqzb3K3AwqjuaXWLKlO--54" target="Hqzb3K3AwqjuaXWLKlO--57">
          <mxGeometry relative="1" as="geometry" />
        </mxCell>
        <mxCell id="Hqzb3K3AwqjuaXWLKlO--54" value="审计日志" style="rounded=1;whiteSpace=wrap;html=1;" vertex="1" parent="Hqzb3K3AwqjuaXWLKlO--278">
          <mxGeometry x="140" y="150" width="100" height="30" as="geometry" />
        </mxCell>
        <mxCell id="Hqzb3K3AwqjuaXWLKlO--253" value="" style="group" vertex="1" connectable="0" parent="Hqzb3K3AwqjuaXWLKlO--278">
          <mxGeometry y="240" width="160" height="70" as="geometry" />
        </mxCell>
        <mxCell id="Hqzb3K3AwqjuaXWLKlO--55" value="" style="rounded=1;whiteSpace=wrap;html=1;container=0;" vertex="1" parent="Hqzb3K3AwqjuaXWLKlO--253">
          <mxGeometry y="2" width="160" height="68" as="geometry" />
        </mxCell>
        <mxCell id="Hqzb3K3AwqjuaXWLKlO--47" value="" style="shape=cylinder3;whiteSpace=wrap;html=1;boundedLbl=1;backgroundOutline=1;size=15;container=0;" vertex="1" parent="Hqzb3K3AwqjuaXWLKlO--253">
          <mxGeometry x="10" y="22" width="60" height="40" as="geometry" />
        </mxCell>
        <mxCell id="Hqzb3K3AwqjuaXWLKlO--51" value="" style="shape=cylinder3;whiteSpace=wrap;html=1;boundedLbl=1;backgroundOutline=1;size=15;container=0;" vertex="1" parent="Hqzb3K3AwqjuaXWLKlO--253">
          <mxGeometry x="80" y="22" width="60" height="40" as="geometry" />
        </mxCell>
        <mxCell id="Hqzb3K3AwqjuaXWLKlO--53" value="用户实例" style="text;html=1;align=center;verticalAlign=middle;resizable=0;points=[];autosize=1;strokeColor=none;fillColor=none;container=0;" vertex="1" parent="Hqzb3K3AwqjuaXWLKlO--253">
          <mxGeometry x="40" width="70" height="30" as="geometry" />
        </mxCell>
        <mxCell id="Hqzb3K3AwqjuaXWLKlO--260" style="edgeStyle=orthogonalEdgeStyle;rounded=0;orthogonalLoop=1;jettySize=auto;html=1;exitX=0.5;exitY=0;exitDx=0;exitDy=0;entryX=0.5;entryY=1;entryDx=0;entryDy=0;" edge="1" parent="Hqzb3K3AwqjuaXWLKlO--278" source="Hqzb3K3AwqjuaXWLKlO--66" target="Hqzb3K3AwqjuaXWLKlO--64">
          <mxGeometry relative="1" as="geometry" />
        </mxCell>
        <mxCell id="Hqzb3K3AwqjuaXWLKlO--262" value="" style="endArrow=classic;html=1;rounded=0;entryX=0;entryY=0.5;entryDx=0;entryDy=0;" edge="1" parent="Hqzb3K3AwqjuaXWLKlO--278" target="Hqzb3K3AwqjuaXWLKlO--54">
          <mxGeometry width="50" height="50" relative="1" as="geometry">
            <mxPoint x="80" y="240" as="sourcePoint" />
            <mxPoint x="130" y="190" as="targetPoint" />
            <Array as="points">
              <mxPoint x="80" y="165" />
            </Array>
          </mxGeometry>
        </mxCell>
        <mxCell id="Hqzb3K3AwqjuaXWLKlO--266" style="edgeStyle=orthogonalEdgeStyle;rounded=0;orthogonalLoop=1;jettySize=auto;html=1;exitX=0;exitY=0.5;exitDx=0;exitDy=0;" edge="1" parent="Hqzb3K3AwqjuaXWLKlO--278" source="Hqzb3K3AwqjuaXWLKlO--264">
          <mxGeometry relative="1" as="geometry">
            <mxPoint x="80" y="310" as="targetPoint" />
          </mxGeometry>
        </mxCell>
        <mxCell id="Hqzb3K3AwqjuaXWLKlO--269" value="&amp;nbsp;explain" style="edgeLabel;html=1;align=center;verticalAlign=middle;resizable=0;points=[];" vertex="1" connectable="0" parent="Hqzb3K3AwqjuaXWLKlO--266">
          <mxGeometry x="-0.1579" y="3" relative="1" as="geometry">
            <mxPoint as="offset" />
          </mxGeometry>
        </mxCell>
        <mxCell id="Hqzb3K3AwqjuaXWLKlO--268" style="edgeStyle=orthogonalEdgeStyle;rounded=0;orthogonalLoop=1;jettySize=auto;html=1;exitX=1;exitY=0.5;exitDx=0;exitDy=0;entryX=0;entryY=0.5;entryDx=0;entryDy=0;" edge="1" parent="Hqzb3K3AwqjuaXWLKlO--278" source="Hqzb3K3AwqjuaXWLKlO--264" target="Hqzb3K3AwqjuaXWLKlO--267">
          <mxGeometry relative="1" as="geometry" />
        </mxCell>
        <mxCell id="Hqzb3K3AwqjuaXWLKlO--264" value="dbaas-druid" style="rounded=1;whiteSpace=wrap;html=1;" vertex="1" parent="Hqzb3K3AwqjuaXWLKlO--278">
          <mxGeometry x="417" y="429" width="105" height="30" as="geometry" />
        </mxCell>
        <mxCell id="Hqzb3K3AwqjuaXWLKlO--265" value="" style="edgeStyle=orthogonalEdgeStyle;rounded=0;orthogonalLoop=1;jettySize=auto;html=1;exitX=0.5;exitY=1;exitDx=0;exitDy=0;entryX=0.5;entryY=0;entryDx=0;entryDy=0;" edge="1" parent="Hqzb3K3AwqjuaXWLKlO--278" source="Hqzb3K3AwqjuaXWLKlO--66" target="Hqzb3K3AwqjuaXWLKlO--264">
          <mxGeometry relative="1" as="geometry" />
        </mxCell>
        <mxCell id="Hqzb3K3AwqjuaXWLKlO--277" style="edgeStyle=orthogonalEdgeStyle;rounded=0;orthogonalLoop=1;jettySize=auto;html=1;exitX=1;exitY=0.5;exitDx=0;exitDy=0;" edge="1" parent="Hqzb3K3AwqjuaXWLKlO--278" source="Hqzb3K3AwqjuaXWLKlO--267">
          <mxGeometry relative="1" as="geometry">
            <mxPoint x="820" y="443.70588235294144" as="targetPoint" />
          </mxGeometry>
        </mxCell>
        <mxCell id="Hqzb3K3AwqjuaXWLKlO--267" value="diag 组件" style="rounded=1;whiteSpace=wrap;html=1;" vertex="1" parent="Hqzb3K3AwqjuaXWLKlO--278">
          <mxGeometry x="630" y="429" width="105" height="30" as="geometry" />
        </mxCell>
        <mxCell id="Hqzb3K3AwqjuaXWLKlO--270" value="" style="group" vertex="1" connectable="0" parent="Hqzb3K3AwqjuaXWLKlO--278">
          <mxGeometry x="820" y="370" width="140" height="190" as="geometry" />
        </mxCell>
        <mxCell id="Hqzb3K3AwqjuaXWLKlO--271" value="" style="rounded=0;whiteSpace=wrap;html=1;dashed=1;dashPattern=8 8;" vertex="1" parent="Hqzb3K3AwqjuaXWLKlO--270">
          <mxGeometry width="140" height="150" as="geometry" />
        </mxCell>
        <mxCell id="Hqzb3K3AwqjuaXWLKlO--272" value="执行计划退变" style="rounded=1;whiteSpace=wrap;html=1;" vertex="1" parent="Hqzb3K3AwqjuaXWLKlO--270">
          <mxGeometry x="17.5" y="30" width="105" height="30" as="geometry" />
        </mxCell>
        <mxCell id="Hqzb3K3AwqjuaXWLKlO--273" value="全表扫描" style="rounded=1;whiteSpace=wrap;html=1;" vertex="1" parent="Hqzb3K3AwqjuaXWLKlO--270">
          <mxGeometry x="17.5" y="70" width="105" height="30" as="geometry" />
        </mxCell>
        <mxCell id="Hqzb3K3AwqjuaXWLKlO--275" value="............" style="rounded=1;whiteSpace=wrap;html=1;" vertex="1" parent="Hqzb3K3AwqjuaXWLKlO--270">
          <mxGeometry x="17.5" y="110" width="105" height="30" as="geometry" />
        </mxCell>
        <mxCell id="Hqzb3K3AwqjuaXWLKlO--276" value="输出诊断项" style="text;html=1;align=center;verticalAlign=middle;whiteSpace=wrap;rounded=0;" vertex="1" parent="Hqzb3K3AwqjuaXWLKlO--270">
          <mxGeometry width="80" height="30" as="geometry" />
        </mxCell>
        <mxCell id="Hqzb3K3AwqjuaXWLKlO--290" value="通过规则预处理过滤性能波动 SQL" style="text;html=1;align=center;verticalAlign=middle;whiteSpace=wrap;rounded=0;" vertex="1" parent="Hqzb3K3AwqjuaXWLKlO--278">
          <mxGeometry x="365.5" y="510" width="204.5" height="30" as="geometry" />
        </mxCell>
        <mxCell id="Hqzb3K3AwqjuaXWLKlO--289" value="基于指标实时触发" style="text;html=1;align=center;verticalAlign=middle;whiteSpace=wrap;rounded=0;" vertex="1" parent="1">
          <mxGeometry x="82.5" y="960" width="117" height="30" as="geometry" />
        </mxCell>
      </root>
    </mxGraphModel>
  </diagram>
</mxfile>
